<svg xmlns="http://www.w3.org/2000/svg" xmlns:xlink="http://www.w3.org/1999/xlink" width="500" zoomAndPan="magnify" viewBox="0 0 375 374.999991" height="500" preserveAspectRatio="xMidYMid meet" version="1.0"><defs><g/></defs><path fill="#000000" d="M 330.171875 -214.039062 C 322.402344 -214.039062 317.914062 -210.515625 313.960938 -207.40625 C 310.375 -204.589844 307.542969 -202.367188 302.34375 -202.367188 C 297.242188 -202.367188 294.839844 -204.429688 291.804688 -207.042969 C 288.445312 -209.933594 284.269531 -213.527344 276.402344 -213.527344 C 268.535156 -213.527344 264.359375 -209.933594 261.003906 -207.042969 C 257.964844 -204.429688 255.566406 -202.367188 250.460938 -202.367188 C 245.355469 -202.367188 242.957031 -204.429688 239.917969 -207.042969 C 236.5625 -209.933594 232.386719 -213.527344 224.519531 -213.527344 C 216.652344 -213.527344 212.472656 -209.933594 209.117188 -207.042969 C 206.078125 -204.429688 203.679688 -202.367188 198.574219 -202.367188 C 193.46875 -202.367188 191.070312 -204.429688 188.03125 -207.042969 C 184.675781 -209.933594 180.496094 -213.527344 172.632812 -213.527344 C 164.761719 -213.527344 160.585938 -209.933594 157.234375 -207.042969 C 154.195312 -204.429688 151.792969 -202.367188 146.6875 -202.367188 C 141.585938 -202.367188 139.183594 -204.429688 136.144531 -207.042969 C 132.789062 -209.933594 128.613281 -213.527344 120.746094 -213.527344 C 112.878906 -213.527344 108.703125 -209.933594 105.347656 -207.042969 C 102.308594 -204.429688 99.910156 -202.367188 94.804688 -202.367188 C 89.605469 -202.367188 86.773438 -204.589844 83.191406 -207.40625 C 79.234375 -210.515625 74.75 -214.039062 66.976562 -214.039062 C 52.667969 -214.132812 51.035156 -202.605469 39.847656 -202.578125 C 27.765625 -202.816406 23.113281 -213.195312 9.257812 -213.503906 C -7.824219 -214.242188 -18.589844 -201.855469 -18.265625 -184.945312 C -18.140625 -169.292969 -7.371094 -168.386719 -7.242188 -155.351562 C -7.242188 -149.109375 -9.695312 -144.636719 -12.296875 -139.898438 C -19.757812 -127.503906 -20.78125 -115.070312 -12.09375 -102.964844 C -9.453125 -98.851562 -7.167969 -95.292969 -7.105469 -89.34375 C -7.433594 -76.269531 -18.367188 -73.167969 -18.265625 -57.820312 C -18.265625 -49.671875 -15.09375 -43.886719 -12.296875 -38.785156 C -9.695312 -34.050781 -7.242188 -29.574219 -7.242188 -23.332031 C -7.242188 -17.304688 -9.457031 -14.214844 -12.027344 -10.636719 C -14.90625 -6.625 -18.167969 -2.078125 -18.265625 6.261719 C -18.371094 15.121094 -15.546875 22.828125 -10.3125 27.957031 C -5.480469 32.699219 1.289062 35.070312 9.257812 34.820312 C 16.625 34.589844 21.734375 31.5 26.238281 28.777344 C 30.574219 26.15625 34.3125 23.894531 39.847656 23.894531 C 45.015625 23.894531 47.6875 26.054688 51.070312 28.792969 C 61.046875 37.75 73.167969 37.460938 83.191406 28.71875 C 86.773438 25.902344 89.605469 23.679688 94.804688 23.679688 C 99.910156 23.679688 102.308594 25.746094 105.347656 28.359375 C 108.703125 31.25 112.878906 34.84375 120.746094 34.84375 C 128.613281 34.84375 132.789062 31.25 136.144531 28.359375 C 139.183594 25.746094 141.585938 23.679688 146.6875 23.679688 C 151.792969 23.679688 154.195312 25.746094 157.234375 28.359375 C 160.585938 31.25 164.761719 34.84375 172.632812 34.84375 C 180.496094 34.84375 184.675781 31.25 188.03125 28.359375 C 191.070312 25.746094 193.46875 23.679688 198.574219 23.679688 C 209.667969 23.699219 209.980469 34.820312 224.519531 34.84375 C 232.386719 34.84375 236.5625 31.25 239.917969 28.359375 C 242.957031 25.746094 245.355469 23.679688 250.460938 23.679688 C 255.566406 23.679688 257.964844 25.746094 261.003906 28.359375 C 264.359375 31.25 268.535156 34.84375 276.402344 34.84375 C 284.269531 34.84375 288.445312 31.25 291.804688 28.359375 C 294.839844 25.746094 297.242188 23.679688 302.34375 23.679688 C 313.820312 23.804688 315.710938 35.394531 330.171875 35.351562 C 344.484375 35.449219 346.113281 23.921875 357.300781 23.890625 C 369.382812 24.128906 374.035156 34.511719 387.890625 34.820312 C 404.976562 35.558594 415.742188 23.167969 415.414062 6.261719 C 415.316406 -2.078125 412.054688 -6.625 409.175781 -10.636719 C 406.605469 -14.214844 404.390625 -17.304688 404.390625 -23.332031 C 404.695312 -37.09375 415.570312 -42.699219 415.417969 -57.820312 C 415.511719 -73.1875 404.585938 -76.261719 404.253906 -89.34375 C 404.582031 -102.414062 415.515625 -105.515625 415.417969 -120.863281 C 415.566406 -135.996094 404.699219 -141.585938 404.390625 -155.351562 C 404.527344 -168.398438 415.289062 -169.292969 415.414062 -184.945312 C 415.726562 -201.847656 404.988281 -214.25 387.890625 -213.503906 C 380.523438 -213.273438 375.417969 -210.183594 370.910156 -207.460938 C 366.578125 -204.84375 362.835938 -202.578125 357.300781 -202.578125 C 346.117188 -202.609375 344.46875 -214.140625 330.171875 -214.039062 Z M 330.171875 -214.039062 " fill-opacity="1" fill-rule="nonzero"/><g fill="#000000" fill-opacity="1"><g transform="translate(170.536179, 5.625)"><g><path d="M 2.109375 0.078125 C 1.804688 0.078125 1.566406 -0.00390625 1.390625 -0.171875 C 1.222656 -0.335938 1.140625 -0.5625 1.140625 -0.84375 C 1.140625 -1.113281 1.222656 -1.332031 1.390625 -1.5 C 1.566406 -1.675781 1.804688 -1.765625 2.109375 -1.765625 C 2.410156 -1.765625 2.644531 -1.679688 2.8125 -1.515625 C 2.988281 -1.347656 3.078125 -1.128906 3.078125 -0.859375 C 3.078125 -0.578125 2.988281 -0.347656 2.8125 -0.171875 C 2.632812 -0.00390625 2.398438 0.078125 2.109375 0.078125 Z M 2.109375 0.078125 "/></g></g></g></svg>