<svg xmlns="http://www.w3.org/2000/svg" xmlns:xlink="http://www.w3.org/1999/xlink" width="567" zoomAndPan="magnify" viewBox="0 0 425.25 141.750002" height="189" preserveAspectRatio="xMidYMid meet" version="1.0"><defs><g/><clipPath id="adf398baa3"><path d="M 21 4 L 409 4 L 409 141.5 L 21 141.5 Z M 21 4 " clip-rule="nonzero"/></clipPath><clipPath id="3ab3640fb0"><path d="M 0.0820312 40 L 186 40 L 186 137.5 L 0.0820312 137.5 Z M 0.0820312 40 " clip-rule="nonzero"/></clipPath><clipPath id="0a875603de"><path d="M 100 0.0820312 L 139 0.0820312 L 139 84 L 100 84 Z M 100 0.0820312 " clip-rule="nonzero"/></clipPath><clipPath id="f42edced23"><rect x="0" width="186" y="0" height="98"/></clipPath><clipPath id="9775d68b62"><rect x="0" width="57" y="0" height="94"/></clipPath><clipPath id="85091c05fa"><path d="M 255 40 L 387.957031 40 L 387.957031 137.5 L 255 137.5 Z M 255 40 " clip-rule="nonzero"/></clipPath><clipPath id="8fc775b836"><path d="M 3 0.320312 L 43 0.320312 L 43 83 L 3 83 Z M 3 0.320312 " clip-rule="nonzero"/></clipPath><clipPath id="088dcfa811"><path d="M 45 0.320312 L 95 0.320312 L 95 83 L 45 83 Z M 45 0.320312 " clip-rule="nonzero"/></clipPath><clipPath id="04531cc27a"><path d="M 84 0.320312 L 131 0.320312 L 131 83 L 84 83 Z M 84 0.320312 " clip-rule="nonzero"/></clipPath><clipPath id="010888632b"><rect x="0" width="133" y="0" height="98"/></clipPath><clipPath id="7392fce1e5"><path d="M 0.0820312 0.0742188 L 102 0.0742188 L 102 48 L 0.0820312 48 Z M 0.0820312 0.0742188 " clip-rule="nonzero"/></clipPath><clipPath id="634def4fe2"><path d="M 77 0.0742188 L 85 0.0742188 L 85 11 L 77 11 Z M 77 0.0742188 " clip-rule="nonzero"/></clipPath><clipPath id="3555b4627d"><rect x="0" width="102" y="0" height="48"/></clipPath><clipPath id="bb9ecd9017"><rect x="0" width="388" y="0" height="138"/></clipPath></defs><g clip-path="url(#adf398baa3)"><g transform="matrix(1, 0, 0, 1, 21, 4)"><g clip-path="url(#bb9ecd9017)"><g clip-path="url(#3ab3640fb0)"><g transform="matrix(1, 0, 0, 1, 0.000000000000003553, 40)"><g clip-path="url(#f42edced23)"><g fill="#ff3131" fill-opacity="1"><g transform="translate(0.282602, 83.127685)"><g><path d="M 2.359375 -81.875 L 19.5625 -81.875 C 19.09375 -81.40625 18.710938 -80.5 18.421875 -79.15625 C 18.140625 -77.820312 17.929688 -76.28125 17.796875 -74.53125 C 17.660156 -72.78125 17.578125 -70.988281 17.546875 -69.15625 C 17.523438 -67.320312 17.515625 -65.644531 17.515625 -64.125 C 17.515625 -62.601562 17.515625 -61.421875 17.515625 -60.578125 L 17.515625 -52.96875 L 29.46875 -52.96875 L 29.46875 -60.578125 C 29.46875 -61.421875 29.46875 -62.601562 29.46875 -64.125 C 29.46875 -65.644531 29.453125 -67.320312 29.421875 -69.15625 C 29.398438 -70.988281 29.320312 -72.78125 29.1875 -74.53125 C 29.0625 -76.28125 28.851562 -77.820312 28.5625 -79.15625 C 28.269531 -80.5 27.890625 -81.40625 27.421875 -81.875 L 44.625 -81.875 C 44.101562 -81.40625 43.695312 -80.5 43.40625 -79.15625 C 43.125 -77.820312 42.929688 -76.28125 42.828125 -74.53125 C 42.722656 -72.78125 42.644531 -70.988281 42.59375 -69.15625 C 42.539062 -67.320312 42.523438 -65.644531 42.546875 -64.125 C 42.578125 -62.601562 42.59375 -61.421875 42.59375 -60.578125 L 42.59375 -21.296875 C 42.59375 -20.453125 42.578125 -19.269531 42.546875 -17.75 C 42.523438 -16.238281 42.539062 -14.566406 42.59375 -12.734375 C 42.644531 -10.898438 42.722656 -9.101562 42.828125 -7.34375 C 42.929688 -5.59375 43.125 -4.046875 43.40625 -2.703125 C 43.695312 -1.367188 44.101562 -0.46875 44.625 0 L 27.421875 0 C 27.890625 -0.46875 28.269531 -1.367188 28.5625 -2.703125 C 28.851562 -4.046875 29.0625 -5.59375 29.1875 -7.34375 C 29.320312 -9.101562 29.398438 -10.898438 29.421875 -12.734375 C 29.453125 -14.566406 29.46875 -16.238281 29.46875 -17.75 C 29.46875 -19.269531 29.46875 -20.453125 29.46875 -21.296875 L 29.46875 -41.640625 L 17.515625 -41.640625 L 17.515625 -21.296875 C 17.515625 -20.453125 17.515625 -19.269531 17.515625 -17.75 C 17.515625 -16.238281 17.523438 -14.566406 17.546875 -12.734375 C 17.578125 -10.898438 17.660156 -9.101562 17.796875 -7.34375 C 17.929688 -5.59375 18.140625 -4.046875 18.421875 -2.703125 C 18.710938 -1.367188 19.09375 -0.46875 19.5625 0 L 2.359375 0 C 2.878906 -0.46875 3.28125 -1.367188 3.5625 -2.703125 C 3.851562 -4.046875 4.050781 -5.59375 4.15625 -7.34375 C 4.269531 -9.101562 4.351562 -10.898438 4.40625 -12.734375 C 4.457031 -14.566406 4.46875 -16.238281 4.4375 -17.75 C 4.414062 -19.269531 4.40625 -20.453125 4.40625 -21.296875 L 4.40625 -60.578125 C 4.40625 -61.421875 4.414062 -62.601562 4.4375 -64.125 C 4.46875 -65.644531 4.457031 -67.320312 4.40625 -69.15625 C 4.351562 -70.988281 4.269531 -72.78125 4.15625 -74.53125 C 4.050781 -76.28125 3.851562 -77.820312 3.5625 -79.15625 C 3.28125 -80.5 2.878906 -81.40625 2.359375 -81.875 Z M 2.359375 -81.875 "/></g></g></g><g fill="#ff3131" fill-opacity="1"><g transform="translate(47.261234, 83.127685)"><g><path d="M 20.359375 0 L 1.25 0 C 2.09375 -1.570312 2.84375 -3.578125 3.5 -6.015625 C 4.15625 -8.453125 4.742188 -10.960938 5.265625 -13.546875 C 5.785156 -16.140625 6.203125 -18.4375 6.515625 -20.4375 C 7.566406 -26.40625 8.535156 -31.898438 9.421875 -36.921875 C 10.316406 -41.953125 11.195312 -46.8125 12.0625 -51.5 C 12.925781 -56.195312 13.800781 -61.003906 14.6875 -65.921875 C 15.582031 -70.847656 16.523438 -76.164062 17.515625 -81.875 L 33.875 -81.875 C 34.863281 -76.164062 35.789062 -70.847656 36.65625 -65.921875 C 37.519531 -61.003906 38.367188 -56.195312 39.203125 -51.5 C 40.046875 -46.8125 40.925781 -41.953125 41.84375 -36.921875 C 42.757812 -31.898438 43.769531 -26.40625 44.875 -20.4375 C 45.238281 -18.4375 45.664062 -16.140625 46.15625 -13.546875 C 46.65625 -10.960938 47.242188 -8.453125 47.921875 -6.015625 C 48.609375 -3.578125 49.347656 -1.570312 50.140625 0 L 31.03125 0 C 31.769531 -1.78125 32.175781 -3.691406 32.25 -5.734375 C 32.332031 -7.773438 32.269531 -9.859375 32.0625 -11.984375 C 31.851562 -14.109375 31.617188 -16.113281 31.359375 -18 L 20.03125 -18 C 19.820312 -16.113281 19.597656 -14.109375 19.359375 -11.984375 C 19.128906 -9.859375 19.050781 -7.773438 19.125 -5.734375 C 19.207031 -3.691406 19.617188 -1.78125 20.359375 0 Z M 21.453125 -29.3125 L 29.9375 -29.3125 L 25.6875 -64.046875 Z M 21.453125 -29.3125 "/></g></g></g><g clip-path="url(#0a875603de)"><g fill="#ff3131" fill-opacity="1"><g transform="translate(96.832046, 83.127685)"><g><path d="M 3.921875 -27.890625 L 3.921875 -54.765625 C 3.921875 -58.222656 4 -61.09375 4.15625 -63.375 C 4.320312 -65.65625 4.648438 -67.644531 5.140625 -69.34375 C 5.640625 -71.050781 6.363281 -72.710938 7.3125 -74.328125 C 8.71875 -76.742188 10.71875 -78.738281 13.3125 -80.3125 C 15.90625 -81.882812 19.085938 -82.671875 22.859375 -82.671875 C 26.640625 -82.671875 29.820312 -81.882812 32.40625 -80.3125 C 35 -78.738281 37.003906 -76.742188 38.421875 -74.328125 C 39.421875 -72.710938 40.15625 -71.050781 40.625 -69.34375 C 41.09375 -67.644531 41.40625 -65.65625 41.5625 -63.375 C 41.71875 -61.09375 41.796875 -58.222656 41.796875 -54.765625 L 41.796875 -53.28125 L 28.609375 -53.28125 L 28.609375 -58.859375 C 28.609375 -60.109375 28.566406 -61.441406 28.484375 -62.859375 C 28.398438 -64.273438 28.175781 -65.597656 27.8125 -66.828125 C 27.445312 -68.054688 26.867188 -69.0625 26.078125 -69.84375 C 25.296875 -70.632812 24.195312 -71.03125 22.78125 -71.03125 C 21.375 -71.03125 20.273438 -70.632812 19.484375 -69.84375 C 18.703125 -69.0625 18.148438 -68.054688 17.828125 -66.828125 C 17.515625 -65.597656 17.316406 -64.273438 17.234375 -62.859375 C 17.160156 -61.441406 17.125 -60.109375 17.125 -58.859375 L 17.125 -23.8125 C 17.125 -22.550781 17.160156 -21.210938 17.234375 -19.796875 C 17.316406 -18.390625 17.515625 -17.066406 17.828125 -15.828125 C 18.148438 -14.597656 18.703125 -13.585938 19.484375 -12.796875 C 20.273438 -12.015625 21.375 -11.625 22.78125 -11.625 C 24.195312 -11.625 25.296875 -12.015625 26.078125 -12.796875 C 26.867188 -13.585938 27.445312 -14.597656 27.8125 -15.828125 C 28.175781 -17.066406 28.398438 -18.390625 28.484375 -19.796875 C 28.566406 -21.210938 28.609375 -22.550781 28.609375 -23.8125 L 28.609375 -30.171875 L 41.796875 -30.171875 L 41.796875 -27.890625 C 41.796875 -24.484375 41.71875 -21.613281 41.5625 -19.28125 C 41.40625 -16.957031 41.09375 -14.941406 40.625 -13.234375 C 40.15625 -11.535156 39.421875 -9.875 38.421875 -8.25 C 37.003906 -5.894531 35 -3.929688 32.40625 -2.359375 C 29.820312 -0.785156 26.640625 0 22.859375 0 C 19.085938 0 15.90625 -0.785156 13.3125 -2.359375 C 10.71875 -3.929688 8.71875 -5.894531 7.3125 -8.25 C 6.363281 -9.875 5.640625 -11.535156 5.140625 -13.234375 C 4.648438 -14.941406 4.320312 -16.957031 4.15625 -19.28125 C 4 -21.613281 3.921875 -24.484375 3.921875 -27.890625 Z M 3.921875 -27.890625 "/></g></g></g></g><g fill="#ff3131" fill-opacity="1"><g transform="translate(140.982529, 83.127685)"><g><path d="M 2.359375 0 C 2.878906 -0.46875 3.28125 -1.367188 3.5625 -2.703125 C 3.851562 -4.046875 4.050781 -5.59375 4.15625 -7.34375 C 4.269531 -9.101562 4.351562 -10.898438 4.40625 -12.734375 C 4.457031 -14.566406 4.46875 -16.238281 4.4375 -17.75 C 4.414062 -19.269531 4.40625 -20.453125 4.40625 -21.296875 L 4.40625 -60.578125 C 4.40625 -61.421875 4.414062 -62.601562 4.4375 -64.125 C 4.46875 -65.644531 4.457031 -67.320312 4.40625 -69.15625 C 4.351562 -70.988281 4.269531 -72.78125 4.15625 -74.53125 C 4.050781 -76.28125 3.851562 -77.820312 3.5625 -79.15625 C 3.28125 -80.5 2.878906 -81.40625 2.359375 -81.875 L 20.109375 -81.875 C 19.535156 -81.40625 19.066406 -80.5 18.703125 -79.15625 C 18.335938 -77.820312 18.078125 -76.28125 17.921875 -74.53125 C 17.765625 -72.78125 17.671875 -70.988281 17.640625 -69.15625 C 17.609375 -67.320312 17.59375 -65.644531 17.59375 -64.125 C 17.59375 -62.601562 17.59375 -61.421875 17.59375 -60.578125 L 17.59375 -47.546875 C 19.375 -47.546875 20.851562 -48.300781 22.03125 -49.8125 C 23.21875 -51.332031 24.164062 -53.320312 24.875 -55.78125 C 25.582031 -58.25 26.09375 -60.867188 26.40625 -63.640625 C 26.71875 -66.421875 26.859375 -69.117188 26.828125 -71.734375 C 26.804688 -74.359375 26.640625 -76.585938 26.328125 -78.421875 C 26.015625 -80.253906 25.617188 -81.40625 25.140625 -81.875 L 41.875 -81.875 C 40.78125 -79.675781 40.078125 -77.148438 39.765625 -74.296875 C 39.453125 -71.441406 39.226562 -68.476562 39.09375 -65.40625 C 38.957031 -62.34375 38.691406 -59.382812 38.296875 -56.53125 C 37.910156 -53.675781 37.128906 -51.125 35.953125 -48.875 C 34.773438 -46.625 32.953125 -44.894531 30.484375 -43.6875 C 32.472656 -43.6875 34.097656 -43.148438 35.359375 -42.078125 C 36.617188 -41.003906 37.601562 -39.601562 38.3125 -37.875 C 39.019531 -36.144531 39.53125 -34.269531 39.84375 -32.25 C 40.15625 -30.238281 40.347656 -28.265625 40.421875 -26.328125 C 40.503906 -24.390625 40.546875 -22.710938 40.546875 -21.296875 C 40.546875 -20.453125 40.53125 -19.269531 40.5 -17.75 C 40.476562 -16.238281 40.492188 -14.566406 40.546875 -12.734375 C 40.597656 -10.898438 40.675781 -9.101562 40.78125 -7.34375 C 40.882812 -5.59375 41.078125 -4.046875 41.359375 -2.703125 C 41.648438 -1.367188 42.0625 -0.46875 42.59375 0 L 25.296875 0 C 25.828125 -0.46875 26.234375 -1.367188 26.515625 -2.703125 C 26.804688 -4.046875 27.003906 -5.59375 27.109375 -7.34375 C 27.210938 -9.101562 27.289062 -10.898438 27.34375 -12.734375 C 27.394531 -14.566406 27.40625 -16.238281 27.375 -17.75 C 27.351562 -19.269531 27.34375 -20.453125 27.34375 -21.296875 C 27.34375 -22.972656 27.300781 -24.675781 27.21875 -26.40625 C 27.144531 -28.132812 26.867188 -29.753906 26.390625 -31.265625 C 25.921875 -32.785156 25.132812 -34.003906 24.03125 -34.921875 C 22.9375 -35.835938 21.34375 -36.296875 19.25 -36.296875 L 17.59375 -36.296875 L 17.59375 -21.296875 C 17.59375 -20.453125 17.578125 -19.269531 17.546875 -17.75 C 17.523438 -16.238281 17.539062 -14.566406 17.59375 -12.734375 C 17.65625 -10.898438 17.738281 -9.101562 17.84375 -7.34375 C 17.945312 -5.59375 18.140625 -4.046875 18.421875 -2.703125 C 18.710938 -1.367188 19.117188 -0.46875 19.640625 0 Z M 2.359375 0 "/></g></g></g></g></g></g><g transform="matrix(1, 0, 0, 1, 192, 38)"><g clip-path="url(#9775d68b62)"><g fill="#ffffff" fill-opacity="1"><g transform="translate(9.99579, 36.309722)"><g><path d="M 1.65625 -11.453125 L 1.65625 -22.953125 C 1.65625 -24.398438 1.6875 -25.613281 1.75 -26.59375 C 1.8125 -27.570312 1.941406 -28.414062 2.140625 -29.125 C 2.335938 -29.84375 2.648438 -30.546875 3.078125 -31.234375 C 3.691406 -32.242188 4.539062 -33.078125 5.625 -33.734375 C 6.71875 -34.398438 8.066406 -34.734375 9.671875 -34.734375 C 11.296875 -34.734375 12.65625 -34.398438 13.75 -33.734375 C 14.84375 -33.078125 15.6875 -32.242188 16.28125 -31.234375 C 16.695312 -30.546875 17.003906 -29.84375 17.203125 -29.125 C 17.398438 -28.414062 17.53125 -27.570312 17.59375 -26.59375 C 17.664062 -25.613281 17.703125 -24.398438 17.703125 -22.953125 L 17.703125 -11.453125 C 17.703125 -10.003906 17.664062 -8.796875 17.59375 -7.828125 C 17.53125 -6.859375 17.398438 -6.015625 17.203125 -5.296875 C 17.003906 -4.578125 16.695312 -3.867188 16.28125 -3.171875 C 15.664062 -2.160156 14.816406 -1.320312 13.734375 -0.65625 C 12.648438 0 11.296875 0.328125 9.671875 0.328125 C 8.066406 0.328125 6.71875 0 5.625 -0.65625 C 4.539062 -1.320312 3.691406 -2.160156 3.078125 -3.171875 C 2.648438 -3.867188 2.335938 -4.578125 2.140625 -5.296875 C 1.941406 -6.015625 1.8125 -6.859375 1.75 -7.828125 C 1.6875 -8.796875 1.65625 -10.003906 1.65625 -11.453125 Z M 7.171875 -24.65625 L 7.171875 -9.734375 C 7.171875 -9.210938 7.191406 -8.65625 7.234375 -8.0625 C 7.273438 -7.46875 7.363281 -6.90625 7.5 -6.375 C 7.644531 -5.84375 7.890625 -5.410156 8.234375 -5.078125 C 8.578125 -4.753906 9.046875 -4.59375 9.640625 -4.59375 C 10.234375 -4.59375 10.707031 -4.753906 11.0625 -5.078125 C 11.414062 -5.410156 11.664062 -5.84375 11.8125 -6.375 C 11.96875 -6.90625 12.066406 -7.46875 12.109375 -8.0625 C 12.160156 -8.65625 12.1875 -9.210938 12.1875 -9.734375 L 12.1875 -24.65625 C 12.1875 -25.1875 12.160156 -25.75 12.109375 -26.34375 C 12.066406 -26.9375 11.96875 -27.5 11.8125 -28.03125 C 11.664062 -28.5625 11.414062 -28.988281 11.0625 -29.3125 C 10.707031 -29.644531 10.234375 -29.8125 9.640625 -29.8125 C 9.046875 -29.8125 8.578125 -29.644531 8.234375 -29.3125 C 7.890625 -28.988281 7.644531 -28.5625 7.5 -28.03125 C 7.363281 -27.5 7.273438 -26.9375 7.234375 -26.34375 C 7.191406 -25.75 7.171875 -25.1875 7.171875 -24.65625 Z M 7.171875 -24.65625 "/></g></g></g><g fill="#ffffff" fill-opacity="1"><g transform="translate(29.371874, 36.309722)"><g><path d="M 1.84375 -25.453125 C 1.84375 -25.804688 1.847656 -26.300781 1.859375 -26.9375 C 1.867188 -27.570312 1.863281 -28.273438 1.84375 -29.046875 C 1.820312 -29.816406 1.789062 -30.570312 1.75 -31.3125 C 1.707031 -32.050781 1.625 -32.703125 1.5 -33.265625 C 1.382812 -33.828125 1.210938 -34.207031 0.984375 -34.40625 L 15.75 -34.40625 L 15.75 -28.625 C 14.863281 -29.019531 14.101562 -29.285156 13.46875 -29.421875 C 12.832031 -29.566406 12.175781 -29.644531 11.5 -29.65625 C 10.832031 -29.675781 9.972656 -29.6875 8.921875 -29.6875 L 7.359375 -29.6875 L 7.359375 -22.25 L 10.203125 -22.25 C 11.171875 -22.25 11.960938 -22.320312 12.578125 -22.46875 C 13.191406 -22.613281 13.816406 -22.859375 14.453125 -23.203125 L 14.453125 -16.515625 C 13.816406 -16.859375 13.191406 -17.109375 12.578125 -17.265625 C 11.960938 -17.421875 11.171875 -17.5 10.203125 -17.5 L 7.359375 -17.5 L 7.390625 -8.21875 C 7.390625 -7.820312 7.394531 -7.242188 7.40625 -6.484375 C 7.414062 -5.722656 7.453125 -4.898438 7.515625 -4.015625 C 7.585938 -3.140625 7.71875 -2.332031 7.90625 -1.59375 C 8.09375 -0.863281 8.351562 -0.332031 8.6875 0 L 0.984375 0 C 1.210938 -0.195312 1.382812 -0.578125 1.5 -1.140625 C 1.625 -1.703125 1.707031 -2.347656 1.75 -3.078125 C 1.789062 -3.816406 1.820312 -4.570312 1.84375 -5.34375 C 1.863281 -6.113281 1.867188 -6.816406 1.859375 -7.453125 C 1.847656 -8.097656 1.84375 -8.597656 1.84375 -8.953125 Z M 1.84375 -25.453125 "/></g></g></g><g fill="#ffffff" fill-opacity="1"><g transform="translate(0.771298, 81.923106)"><g><path d="M 0.65625 -34.40625 L 17.40625 -34.40625 L 17.40625 -28.390625 C 16.9375 -28.703125 16.476562 -28.945312 16.03125 -29.125 C 15.582031 -29.300781 15.03125 -29.429688 14.375 -29.515625 C 13.726562 -29.597656 12.875 -29.640625 11.8125 -29.640625 L 11.8125 -8.390625 C 11.8125 -8.429688 11.8125 -8.441406 11.8125 -8.421875 C 11.8125 -8.398438 11.8125 -8.332031 11.8125 -8.21875 L 11.8125 -8.390625 C 11.8125 -8.273438 11.816406 -7.953125 11.828125 -7.421875 C 11.847656 -6.898438 11.878906 -6.269531 11.921875 -5.53125 C 11.960938 -4.789062 12.03125 -4.039062 12.125 -3.28125 C 12.226562 -2.519531 12.359375 -1.84375 12.515625 -1.25 C 12.671875 -0.65625 12.867188 -0.238281 13.109375 0 L 4.984375 0 C 5.222656 -0.21875 5.421875 -0.628906 5.578125 -1.234375 C 5.734375 -1.835938 5.859375 -2.519531 5.953125 -3.28125 C 6.054688 -4.039062 6.128906 -4.789062 6.171875 -5.53125 C 6.210938 -6.269531 6.238281 -6.898438 6.25 -7.421875 C 6.257812 -7.953125 6.265625 -8.273438 6.265625 -8.390625 C 6.296875 -8.273438 6.316406 -8.203125 6.328125 -8.171875 C 6.335938 -8.140625 6.332031 -8.15625 6.3125 -8.21875 C 6.28125 -8.332031 6.269531 -8.398438 6.28125 -8.421875 C 6.300781 -8.441406 6.296875 -8.429688 6.265625 -8.390625 C 6.265625 -8.710938 6.265625 -9.328125 6.265625 -10.234375 C 6.265625 -11.140625 6.265625 -12.226562 6.265625 -13.5 C 6.265625 -14.78125 6.265625 -16.132812 6.265625 -17.5625 C 6.265625 -18.988281 6.265625 -20.394531 6.265625 -21.78125 C 6.265625 -23.175781 6.265625 -24.457031 6.265625 -25.625 C 6.265625 -26.789062 6.265625 -27.734375 6.265625 -28.453125 C 6.265625 -29.179688 6.265625 -29.578125 6.265625 -29.640625 C 5.210938 -29.640625 4.359375 -29.597656 3.703125 -29.515625 C 3.054688 -29.429688 2.507812 -29.300781 2.0625 -29.125 C 1.613281 -28.945312 1.144531 -28.703125 0.65625 -28.390625 Z M 0.65625 -34.40625 "/></g></g></g><g fill="#ffffff" fill-opacity="1"><g transform="translate(18.82703, 81.923106)"><g><path d="M 0.984375 -34.40625 L 8.21875 -34.40625 C 8.019531 -34.207031 7.859375 -33.828125 7.734375 -33.265625 C 7.617188 -32.703125 7.53125 -32.050781 7.46875 -31.3125 C 7.414062 -30.570312 7.382812 -29.816406 7.375 -29.046875 C 7.363281 -28.273438 7.359375 -27.570312 7.359375 -26.9375 C 7.359375 -26.300781 7.359375 -25.804688 7.359375 -25.453125 L 7.359375 -22.25 L 12.375 -22.25 L 12.375 -25.453125 C 12.375 -25.804688 12.375 -26.300781 12.375 -26.9375 C 12.375 -27.570312 12.367188 -28.273438 12.359375 -29.046875 C 12.347656 -29.816406 12.316406 -30.570312 12.265625 -31.3125 C 12.210938 -32.050781 12.125 -32.703125 12 -33.265625 C 11.875 -33.828125 11.710938 -34.207031 11.515625 -34.40625 L 18.75 -34.40625 C 18.53125 -34.207031 18.359375 -33.828125 18.234375 -33.265625 C 18.117188 -32.703125 18.035156 -32.050781 17.984375 -31.3125 C 17.941406 -30.570312 17.910156 -29.816406 17.890625 -29.046875 C 17.867188 -28.273438 17.863281 -27.570312 17.875 -26.9375 C 17.882812 -26.300781 17.890625 -25.804688 17.890625 -25.453125 L 17.890625 -8.953125 C 17.890625 -8.597656 17.882812 -8.097656 17.875 -7.453125 C 17.863281 -6.816406 17.867188 -6.113281 17.890625 -5.34375 C 17.910156 -4.570312 17.941406 -3.816406 17.984375 -3.078125 C 18.035156 -2.347656 18.117188 -1.703125 18.234375 -1.140625 C 18.359375 -0.578125 18.53125 -0.195312 18.75 0 L 11.515625 0 C 11.710938 -0.195312 11.875 -0.578125 12 -1.140625 C 12.125 -1.703125 12.210938 -2.347656 12.265625 -3.078125 C 12.316406 -3.816406 12.347656 -4.570312 12.359375 -5.34375 C 12.367188 -6.113281 12.375 -6.816406 12.375 -7.453125 C 12.375 -8.097656 12.375 -8.597656 12.375 -8.953125 L 12.375 -17.5 L 7.359375 -17.5 L 7.359375 -8.953125 C 7.359375 -8.597656 7.359375 -8.097656 7.359375 -7.453125 C 7.359375 -6.816406 7.363281 -6.113281 7.375 -5.34375 C 7.382812 -4.570312 7.414062 -3.816406 7.46875 -3.078125 C 7.53125 -2.347656 7.617188 -1.703125 7.734375 -1.140625 C 7.859375 -0.578125 8.019531 -0.195312 8.21875 0 L 0.984375 0 C 1.210938 -0.195312 1.382812 -0.578125 1.5 -1.140625 C 1.625 -1.703125 1.707031 -2.347656 1.75 -3.078125 C 1.789062 -3.816406 1.820312 -4.570312 1.84375 -5.34375 C 1.863281 -6.113281 1.867188 -6.816406 1.859375 -7.453125 C 1.847656 -8.097656 1.84375 -8.597656 1.84375 -8.953125 L 1.84375 -25.453125 C 1.84375 -25.804688 1.847656 -26.300781 1.859375 -26.9375 C 1.867188 -27.570312 1.863281 -28.273438 1.84375 -29.046875 C 1.820312 -29.816406 1.789062 -30.570312 1.75 -31.3125 C 1.707031 -32.050781 1.625 -32.703125 1.5 -33.265625 C 1.382812 -33.828125 1.210938 -34.207031 0.984375 -34.40625 Z M 0.984375 -34.40625 "/></g></g></g><g fill="#ffffff" fill-opacity="1"><g transform="translate(38.566209, 81.923106)"><g><path d="M 1.84375 -25.453125 C 1.84375 -25.804688 1.847656 -26.300781 1.859375 -26.9375 C 1.867188 -27.570312 1.863281 -28.273438 1.84375 -29.046875 C 1.820312 -29.816406 1.789062 -30.570312 1.75 -31.3125 C 1.707031 -32.050781 1.625 -32.703125 1.5 -33.265625 C 1.382812 -33.828125 1.210938 -34.207031 0.984375 -34.40625 L 15.78125 -34.40625 L 15.78125 -28.59375 C 14.894531 -28.988281 14.132812 -29.257812 13.5 -29.40625 C 12.863281 -29.5625 12.207031 -29.644531 11.53125 -29.65625 C 10.863281 -29.675781 10.003906 -29.6875 8.953125 -29.6875 L 7.390625 -29.6875 L 7.390625 -22.25 L 10.234375 -22.25 C 11.203125 -22.25 11.992188 -22.320312 12.609375 -22.46875 C 13.222656 -22.613281 13.851562 -22.859375 14.5 -23.203125 L 14.5 -16.515625 C 13.851562 -16.859375 13.222656 -17.109375 12.609375 -17.265625 C 11.992188 -17.421875 11.203125 -17.5 10.234375 -17.5 L 7.390625 -17.5 L 7.390625 -4.75 L 8.953125 -4.75 C 10.003906 -4.75 10.863281 -4.753906 11.53125 -4.765625 C 12.207031 -4.773438 12.863281 -4.851562 13.5 -5 C 14.132812 -5.144531 14.894531 -5.414062 15.78125 -5.8125 L 15.78125 0 L 0.984375 0 C 1.210938 -0.195312 1.382812 -0.578125 1.5 -1.140625 C 1.625 -1.703125 1.707031 -2.347656 1.75 -3.078125 C 1.789062 -3.816406 1.820312 -4.570312 1.84375 -5.34375 C 1.863281 -6.113281 1.867188 -6.816406 1.859375 -7.453125 C 1.847656 -8.097656 1.84375 -8.597656 1.84375 -8.953125 Z M 1.84375 -25.453125 "/></g></g></g></g></g><g clip-path="url(#85091c05fa)"><g transform="matrix(1, 0, 0, 1, 255, 40)"><g clip-path="url(#010888632b)"><g clip-path="url(#8fc775b836)"><g fill="#ff3131" fill-opacity="1"><g transform="translate(1.556202, 82.660198)"><g><path d="M 4.40625 -60.578125 C 4.40625 -61.410156 4.414062 -62.585938 4.4375 -64.109375 C 4.46875 -65.628906 4.457031 -67.304688 4.40625 -69.140625 C 4.351562 -70.972656 4.269531 -72.765625 4.15625 -74.515625 C 4.050781 -76.265625 3.851562 -77.804688 3.5625 -79.140625 C 3.28125 -80.484375 2.878906 -81.390625 2.359375 -81.859375 L 19.953125 -81.859375 C 24.140625 -81.859375 27.582031 -81.203125 30.28125 -79.890625 C 32.976562 -78.585938 35.070312 -76.847656 36.5625 -74.671875 C 38.0625 -72.492188 39.109375 -70.054688 39.703125 -67.359375 C 40.304688 -64.671875 40.609375 -61.9375 40.609375 -59.15625 L 40.609375 -22.703125 C 40.609375 -19.929688 40.304688 -17.195312 39.703125 -14.5 C 39.109375 -11.800781 38.0625 -9.363281 36.5625 -7.1875 C 35.070312 -5.007812 32.976562 -3.265625 30.28125 -1.953125 C 27.582031 -0.648438 24.140625 0 19.953125 0 L 2.359375 0 C 2.878906 -0.46875 3.28125 -1.367188 3.5625 -2.703125 C 3.851562 -4.046875 4.050781 -5.59375 4.15625 -7.34375 C 4.269531 -9.101562 4.351562 -10.898438 4.40625 -12.734375 C 4.457031 -14.566406 4.46875 -16.238281 4.4375 -17.75 C 4.414062 -19.269531 4.40625 -20.453125 4.40625 -21.296875 Z M 17.59375 -11.3125 L 19.484375 -11.3125 C 21.679688 -11.3125 23.351562 -11.832031 24.5 -12.875 C 25.65625 -13.925781 26.441406 -15.289062 26.859375 -16.96875 C 27.285156 -18.644531 27.5 -20.425781 27.5 -22.3125 L 27.5 -59.546875 C 27.5 -61.429688 27.285156 -63.210938 26.859375 -64.890625 C 26.441406 -66.566406 25.65625 -67.925781 24.5 -68.96875 C 23.351562 -70.019531 21.679688 -70.546875 19.484375 -70.546875 L 17.59375 -70.546875 Z M 17.59375 -11.3125 "/></g></g></g></g><g clip-path="url(#088dcfa811)"><g fill="#ff3131" fill-opacity="1"><g transform="translate(44.370085, 82.660198)"><g><path d="M 20.34375 0 L 1.25 0 C 2.09375 -1.570312 2.84375 -3.570312 3.5 -6 C 4.15625 -8.4375 4.742188 -10.953125 5.265625 -13.546875 C 5.785156 -16.140625 6.203125 -18.429688 6.515625 -20.421875 C 7.566406 -26.390625 8.535156 -31.890625 9.421875 -36.921875 C 10.316406 -41.953125 11.195312 -46.8125 12.0625 -51.5 C 12.925781 -56.1875 13.800781 -60.988281 14.6875 -65.90625 C 15.582031 -70.832031 16.523438 -76.148438 17.515625 -81.859375 L 33.859375 -81.859375 C 34.859375 -76.148438 35.789062 -70.832031 36.65625 -65.90625 C 37.519531 -60.988281 38.367188 -56.1875 39.203125 -51.5 C 40.035156 -46.8125 40.910156 -41.953125 41.828125 -36.921875 C 42.742188 -31.890625 43.753906 -26.390625 44.859375 -20.421875 C 45.222656 -18.429688 45.65625 -16.140625 46.15625 -13.546875 C 46.65625 -10.953125 47.242188 -8.4375 47.921875 -6 C 48.597656 -3.570312 49.332031 -1.570312 50.125 0 L 31.03125 0 C 31.757812 -1.78125 32.164062 -3.691406 32.25 -5.734375 C 32.332031 -7.773438 32.265625 -9.851562 32.046875 -11.96875 C 31.835938 -14.09375 31.601562 -16.097656 31.34375 -17.984375 L 20.03125 -17.984375 C 19.820312 -16.097656 19.597656 -14.09375 19.359375 -11.96875 C 19.128906 -9.851562 19.050781 -7.773438 19.125 -5.734375 C 19.207031 -3.691406 19.613281 -1.78125 20.34375 0 Z M 21.453125 -29.296875 L 29.9375 -29.296875 L 25.6875 -64.03125 Z M 21.453125 -29.296875 "/></g></g></g></g><g clip-path="url(#04531cc27a)"><g fill="#ff3131" fill-opacity="1"><g transform="translate(84.119474, 82.660198)"><g><path d="M 0 -81.859375 L 18.46875 -81.859375 C 17.882812 -80.179688 17.816406 -77.757812 18.265625 -74.59375 C 18.710938 -71.425781 19.457031 -67.828125 20.5 -63.796875 C 21.550781 -59.765625 22.625 -55.570312 23.71875 -51.21875 C 24.25 -54.46875 24.835938 -57.632812 25.484375 -60.71875 C 26.140625 -63.8125 26.726562 -66.71875 27.25 -69.4375 C 27.78125 -72.164062 28.125 -74.585938 28.28125 -76.703125 C 28.4375 -78.828125 28.28125 -80.519531 27.8125 -81.78125 L 46.265625 -81.78125 C 45.429688 -80.257812 44.617188 -78.753906 43.828125 -77.265625 C 43.046875 -75.773438 42.300781 -74.125 41.59375 -72.3125 C 40.882812 -70.507812 40.164062 -68.320312 39.4375 -65.75 L 29.703125 -32.046875 L 29.703125 -19.5625 C 29.703125 -18.613281 29.710938 -17.238281 29.734375 -15.4375 C 29.765625 -13.632812 29.867188 -11.679688 30.046875 -9.578125 C 30.234375 -7.484375 30.546875 -5.554688 30.984375 -3.796875 C 31.429688 -2.046875 32.078125 -0.78125 32.921875 0 L 23.5625 -0.078125 L 13.359375 -0.078125 C 14.191406 -0.859375 14.832031 -2.125 15.28125 -3.875 C 15.726562 -5.632812 16.039062 -7.5625 16.21875 -9.65625 C 16.40625 -11.757812 16.507812 -13.710938 16.53125 -15.515625 C 16.5625 -17.316406 16.578125 -18.691406 16.578125 -19.640625 L 16.578125 -32.125 L 6.75 -65.828125 C 6.019531 -68.398438 5.285156 -70.585938 4.546875 -72.390625 C 3.816406 -74.203125 3.082031 -75.851562 2.34375 -77.34375 C 1.613281 -78.832031 0.832031 -80.335938 0 -81.859375 Z M 0 -81.859375 "/></g></g></g></g></g></g></g><g clip-path="url(#7392fce1e5)"><g transform="matrix(1, 0, 0, 1, 0.000000000000003553, 0.000000000000032419)"><g clip-path="url(#3555b4627d)"><g fill="#ffffff" fill-opacity="1"><g transform="translate(0.305729, 35.29942)"><g><path d="M 5.84375 0.328125 C 4.914062 0.328125 4.082031 0.0820312 3.34375 -0.40625 C 2.613281 -0.90625 2.035156 -1.585938 1.609375 -2.453125 C 1.191406 -3.328125 0.984375 -4.300781 0.984375 -5.375 C 0.984375 -6.914062 1.207031 -8.171875 1.65625 -9.140625 C 2.113281 -10.109375 2.691406 -10.894531 3.390625 -11.5 C 4.097656 -12.101562 4.847656 -12.617188 5.640625 -13.046875 C 6.429688 -13.484375 7.179688 -13.914062 7.890625 -14.34375 C 8.597656 -14.769531 9.175781 -15.296875 9.625 -15.921875 C 10.070312 -16.554688 10.296875 -17.378906 10.296875 -18.390625 C 10.296875 -18.828125 10.148438 -19.257812 9.859375 -19.6875 C 9.578125 -20.125 9.085938 -20.34375 8.390625 -20.34375 C 7.878906 -20.34375 7.441406 -20.179688 7.078125 -19.859375 C 6.710938 -19.535156 6.53125 -19.125 6.53125 -18.625 C 6.53125 -18.09375 6.675781 -17.679688 6.96875 -17.390625 C 7.269531 -17.109375 7.632812 -16.96875 8.0625 -16.96875 C 8.0625 -16.8125 7.992188 -16.566406 7.859375 -16.234375 C 7.722656 -15.910156 7.46875 -15.609375 7.09375 -15.328125 C 6.71875 -15.054688 6.171875 -14.921875 5.453125 -14.921875 C 4.109375 -14.921875 3.101562 -15.335938 2.4375 -16.171875 C 1.78125 -17.015625 1.453125 -18.039062 1.453125 -19.25 C 1.453125 -20.257812 1.703125 -21.207031 2.203125 -22.09375 C 2.710938 -22.988281 3.484375 -23.710938 4.515625 -24.265625 C 5.554688 -24.816406 6.859375 -25.09375 8.421875 -25.09375 C 9.890625 -25.09375 11.097656 -24.835938 12.046875 -24.328125 C 12.992188 -23.828125 13.734375 -23.148438 14.265625 -22.296875 C 14.796875 -21.453125 15.164062 -20.503906 15.375 -19.453125 C 15.582031 -18.410156 15.6875 -17.351562 15.6875 -16.28125 C 15.6875 -16.28125 15.6875 -16.085938 15.6875 -15.703125 C 15.6875 -15.316406 15.691406 -14.8125 15.703125 -14.1875 C 15.710938 -13.570312 15.71875 -12.929688 15.71875 -12.265625 C 15.71875 -11.597656 15.71875 -10.960938 15.71875 -10.359375 C 15.71875 -9.765625 15.71875 -9.296875 15.71875 -8.953125 C 15.71875 -8.597656 15.710938 -8.097656 15.703125 -7.453125 C 15.691406 -6.816406 15.691406 -6.113281 15.703125 -5.34375 C 15.710938 -4.570312 15.742188 -3.816406 15.796875 -3.078125 C 15.847656 -2.347656 15.9375 -1.703125 16.0625 -1.140625 C 16.1875 -0.578125 16.347656 -0.195312 16.546875 0 L 10.296875 0 L 10.296875 -2.90625 C 10.296875 -2.90625 10.195312 -2.738281 10 -2.40625 C 9.800781 -2.082031 9.515625 -1.703125 9.140625 -1.265625 C 8.765625 -0.835938 8.300781 -0.460938 7.75 -0.140625 C 7.207031 0.171875 6.570312 0.328125 5.84375 0.328125 Z M 10.234375 -10.765625 C 9.835938 -10.472656 9.382812 -10.144531 8.875 -9.78125 C 8.375 -9.425781 7.9375 -8.988281 7.5625 -8.46875 C 7.1875 -7.945312 7 -7.289062 7 -6.5 C 7 -5.925781 7.132812 -5.4375 7.40625 -5.03125 C 7.6875 -4.625 8.101562 -4.421875 8.65625 -4.421875 C 9.175781 -4.421875 9.566406 -4.65625 9.828125 -5.125 C 10.097656 -5.601562 10.234375 -6.207031 10.234375 -6.9375 Z M 10.234375 -10.765625 "/></g></g></g><g fill="#ffffff" fill-opacity="1"><g transform="translate(17.503237, 35.29942)"><g><path d="M 5.84375 0.328125 C 4.914062 0.328125 4.082031 0.0820312 3.34375 -0.40625 C 2.613281 -0.90625 2.035156 -1.585938 1.609375 -2.453125 C 1.191406 -3.328125 0.984375 -4.300781 0.984375 -5.375 C 0.984375 -6.914062 1.207031 -8.171875 1.65625 -9.140625 C 2.113281 -10.109375 2.691406 -10.894531 3.390625 -11.5 C 4.097656 -12.101562 4.847656 -12.617188 5.640625 -13.046875 C 6.429688 -13.484375 7.179688 -13.914062 7.890625 -14.34375 C 8.597656 -14.769531 9.175781 -15.296875 9.625 -15.921875 C 10.070312 -16.554688 10.296875 -17.378906 10.296875 -18.390625 C 10.296875 -18.828125 10.148438 -19.257812 9.859375 -19.6875 C 9.578125 -20.125 9.085938 -20.34375 8.390625 -20.34375 C 7.878906 -20.34375 7.441406 -20.179688 7.078125 -19.859375 C 6.710938 -19.535156 6.53125 -19.125 6.53125 -18.625 C 6.53125 -18.09375 6.675781 -17.679688 6.96875 -17.390625 C 7.269531 -17.109375 7.632812 -16.96875 8.0625 -16.96875 C 8.0625 -16.8125 7.992188 -16.566406 7.859375 -16.234375 C 7.722656 -15.910156 7.46875 -15.609375 7.09375 -15.328125 C 6.71875 -15.054688 6.171875 -14.921875 5.453125 -14.921875 C 4.109375 -14.921875 3.101562 -15.335938 2.4375 -16.171875 C 1.78125 -17.015625 1.453125 -18.039062 1.453125 -19.25 C 1.453125 -20.257812 1.703125 -21.207031 2.203125 -22.09375 C 2.710938 -22.988281 3.484375 -23.710938 4.515625 -24.265625 C 5.554688 -24.816406 6.859375 -25.09375 8.421875 -25.09375 C 9.890625 -25.09375 11.097656 -24.835938 12.046875 -24.328125 C 12.992188 -23.828125 13.734375 -23.148438 14.265625 -22.296875 C 14.796875 -21.453125 15.164062 -20.503906 15.375 -19.453125 C 15.582031 -18.410156 15.6875 -17.351562 15.6875 -16.28125 C 15.6875 -16.28125 15.6875 -16.085938 15.6875 -15.703125 C 15.6875 -15.316406 15.691406 -14.8125 15.703125 -14.1875 C 15.710938 -13.570312 15.71875 -12.929688 15.71875 -12.265625 C 15.71875 -11.597656 15.71875 -10.960938 15.71875 -10.359375 C 15.71875 -9.765625 15.71875 -9.296875 15.71875 -8.953125 C 15.71875 -8.597656 15.710938 -8.097656 15.703125 -7.453125 C 15.691406 -6.816406 15.691406 -6.113281 15.703125 -5.34375 C 15.710938 -4.570312 15.742188 -3.816406 15.796875 -3.078125 C 15.847656 -2.347656 15.9375 -1.703125 16.0625 -1.140625 C 16.1875 -0.578125 16.347656 -0.195312 16.546875 0 L 10.296875 0 L 10.296875 -2.90625 C 10.296875 -2.90625 10.195312 -2.738281 10 -2.40625 C 9.800781 -2.082031 9.515625 -1.703125 9.140625 -1.265625 C 8.765625 -0.835938 8.300781 -0.460938 7.75 -0.140625 C 7.207031 0.171875 6.570312 0.328125 5.84375 0.328125 Z M 10.234375 -10.765625 C 9.835938 -10.472656 9.382812 -10.144531 8.875 -9.78125 C 8.375 -9.425781 7.9375 -8.988281 7.5625 -8.46875 C 7.1875 -7.945312 7 -7.289062 7 -6.5 C 7 -5.925781 7.132812 -5.4375 7.40625 -5.03125 C 7.6875 -4.625 8.101562 -4.421875 8.65625 -4.421875 C 9.175781 -4.421875 9.566406 -4.65625 9.828125 -5.125 C 10.097656 -5.601562 10.234375 -6.207031 10.234375 -6.9375 Z M 10.234375 -10.765625 "/></g></g></g><g fill="#ffffff" fill-opacity="1"><g transform="translate(34.700745, 35.29942)"><g><path d="M 7.65625 0.328125 C 6.09375 0.328125 4.785156 0.0507812 3.734375 -0.5 C 2.691406 -1.050781 1.914062 -1.765625 1.40625 -2.640625 C 0.90625 -3.523438 0.65625 -4.472656 0.65625 -5.484375 C 0.65625 -6.710938 0.984375 -7.742188 1.640625 -8.578125 C 2.304688 -9.421875 3.3125 -9.84375 4.65625 -9.84375 C 5.382812 -9.84375 5.9375 -9.703125 6.3125 -9.421875 C 6.6875 -9.148438 6.9375 -8.851562 7.0625 -8.53125 C 7.195312 -8.21875 7.265625 -7.972656 7.265625 -7.796875 C 6.847656 -7.796875 6.488281 -7.644531 6.1875 -7.34375 C 5.894531 -7.050781 5.75 -6.648438 5.75 -6.140625 C 5.75 -5.628906 5.925781 -5.207031 6.28125 -4.875 C 6.644531 -4.550781 7.082031 -4.390625 7.59375 -4.390625 C 8.1875 -4.390625 8.664062 -4.613281 9.03125 -5.0625 C 9.394531 -5.519531 9.578125 -6.175781 9.578125 -7.03125 C 9.578125 -7.800781 9.363281 -8.492188 8.9375 -9.109375 C 8.519531 -9.722656 7.988281 -10.296875 7.34375 -10.828125 C 6.695312 -11.359375 6.003906 -11.890625 5.265625 -12.421875 C 4.523438 -12.960938 3.832031 -13.539062 3.1875 -14.15625 C 2.539062 -14.78125 2.003906 -15.484375 1.578125 -16.265625 C 1.160156 -17.046875 0.953125 -17.953125 0.953125 -18.984375 C 0.953125 -20.066406 1.203125 -21.066406 1.703125 -21.984375 C 2.210938 -22.910156 2.9375 -23.660156 3.875 -24.234375 C 4.8125 -24.804688 5.929688 -25.09375 7.234375 -25.09375 C 8.023438 -25.09375 8.6875 -25.066406 9.21875 -25.015625 C 9.757812 -24.972656 10.328125 -24.945312 10.921875 -24.9375 C 11.515625 -24.925781 12.265625 -24.96875 13.171875 -25.0625 L 13.171875 -19.34375 C 12.421875 -19.78125 11.660156 -20.101562 10.890625 -20.3125 C 10.117188 -20.53125 9.335938 -20.640625 8.546875 -20.640625 C 8.046875 -20.640625 7.566406 -20.519531 7.109375 -20.28125 C 6.660156 -20.050781 6.425781 -19.628906 6.40625 -19.015625 C 6.382812 -18.460938 6.570312 -17.9375 6.96875 -17.4375 C 7.363281 -16.945312 7.875 -16.445312 8.5 -15.9375 C 9.125 -15.4375 9.796875 -14.894531 10.515625 -14.3125 C 11.234375 -13.726562 11.90625 -13.066406 12.53125 -12.328125 C 13.15625 -11.585938 13.671875 -10.738281 14.078125 -9.78125 C 14.484375 -8.832031 14.6875 -7.726562 14.6875 -6.46875 C 14.6875 -5.019531 14.363281 -3.785156 13.71875 -2.765625 C 13.070312 -1.753906 12.210938 -0.984375 11.140625 -0.453125 C 10.078125 0.0664062 8.914062 0.328125 7.65625 0.328125 Z M 7.65625 0.328125 "/></g></g></g><g fill="#ffffff" fill-opacity="1"><g transform="translate(49.389602, 35.29942)"><g><path d="M 2.171875 -19.515625 L 0.65625 -19.515625 L 0.65625 -24.765625 C 0.675781 -24.765625 0.851562 -24.820312 1.1875 -24.9375 C 1.519531 -25.0625 1.945312 -25.28125 2.46875 -25.59375 C 3 -25.914062 3.550781 -26.363281 4.125 -26.9375 C 4.65625 -27.46875 5.101562 -28 5.46875 -28.53125 C 5.832031 -29.070312 6.101562 -29.523438 6.28125 -29.890625 C 6.46875 -30.253906 6.5625 -30.4375 6.5625 -30.4375 L 7.59375 -30.4375 L 7.59375 -24.765625 L 9.046875 -24.765625 L 9.046875 -19.515625 L 7.59375 -19.515625 L 7.59375 -8.25 C 7.59375 -7.457031 7.660156 -6.867188 7.796875 -6.484375 C 7.941406 -6.097656 8.128906 -5.851562 8.359375 -5.75 C 8.597656 -5.65625 8.847656 -5.628906 9.109375 -5.671875 C 9.378906 -5.722656 9.625 -5.757812 9.84375 -5.78125 L 9.84375 0 C 8.9375 0 8.03125 -0.0351562 7.125 -0.109375 C 6.226562 -0.191406 5.40625 -0.429688 4.65625 -0.828125 C 3.90625 -1.222656 3.300781 -1.875 2.84375 -2.78125 C 2.394531 -3.695312 2.171875 -4.992188 2.171875 -6.671875 Z M 2.171875 -19.515625 "/></g></g></g><g fill="#ffffff" fill-opacity="1"><g transform="translate(59.556266, 35.29942)"><g><path d="M 5.84375 0.328125 C 4.914062 0.328125 4.082031 0.0820312 3.34375 -0.40625 C 2.613281 -0.90625 2.035156 -1.585938 1.609375 -2.453125 C 1.191406 -3.328125 0.984375 -4.300781 0.984375 -5.375 C 0.984375 -6.914062 1.207031 -8.171875 1.65625 -9.140625 C 2.113281 -10.109375 2.691406 -10.894531 3.390625 -11.5 C 4.097656 -12.101562 4.847656 -12.617188 5.640625 -13.046875 C 6.429688 -13.484375 7.179688 -13.914062 7.890625 -14.34375 C 8.597656 -14.769531 9.175781 -15.296875 9.625 -15.921875 C 10.070312 -16.554688 10.296875 -17.378906 10.296875 -18.390625 C 10.296875 -18.828125 10.148438 -19.257812 9.859375 -19.6875 C 9.578125 -20.125 9.085938 -20.34375 8.390625 -20.34375 C 7.878906 -20.34375 7.441406 -20.179688 7.078125 -19.859375 C 6.710938 -19.535156 6.53125 -19.125 6.53125 -18.625 C 6.53125 -18.09375 6.675781 -17.679688 6.96875 -17.390625 C 7.269531 -17.109375 7.632812 -16.96875 8.0625 -16.96875 C 8.0625 -16.8125 7.992188 -16.566406 7.859375 -16.234375 C 7.722656 -15.910156 7.46875 -15.609375 7.09375 -15.328125 C 6.71875 -15.054688 6.171875 -14.921875 5.453125 -14.921875 C 4.109375 -14.921875 3.101562 -15.335938 2.4375 -16.171875 C 1.78125 -17.015625 1.453125 -18.039062 1.453125 -19.25 C 1.453125 -20.257812 1.703125 -21.207031 2.203125 -22.09375 C 2.710938 -22.988281 3.484375 -23.710938 4.515625 -24.265625 C 5.554688 -24.816406 6.859375 -25.09375 8.421875 -25.09375 C 9.890625 -25.09375 11.097656 -24.835938 12.046875 -24.328125 C 12.992188 -23.828125 13.734375 -23.148438 14.265625 -22.296875 C 14.796875 -21.453125 15.164062 -20.503906 15.375 -19.453125 C 15.582031 -18.410156 15.6875 -17.351562 15.6875 -16.28125 C 15.6875 -16.28125 15.6875 -16.085938 15.6875 -15.703125 C 15.6875 -15.316406 15.691406 -14.8125 15.703125 -14.1875 C 15.710938 -13.570312 15.71875 -12.929688 15.71875 -12.265625 C 15.71875 -11.597656 15.71875 -10.960938 15.71875 -10.359375 C 15.71875 -9.765625 15.71875 -9.296875 15.71875 -8.953125 C 15.71875 -8.597656 15.710938 -8.097656 15.703125 -7.453125 C 15.691406 -6.816406 15.691406 -6.113281 15.703125 -5.34375 C 15.710938 -4.570312 15.742188 -3.816406 15.796875 -3.078125 C 15.847656 -2.347656 15.9375 -1.703125 16.0625 -1.140625 C 16.1875 -0.578125 16.347656 -0.195312 16.546875 0 L 10.296875 0 L 10.296875 -2.90625 C 10.296875 -2.90625 10.195312 -2.738281 10 -2.40625 C 9.800781 -2.082031 9.515625 -1.703125 9.140625 -1.265625 C 8.765625 -0.835938 8.300781 -0.460938 7.75 -0.140625 C 7.207031 0.171875 6.570312 0.328125 5.84375 0.328125 Z M 10.234375 -10.765625 C 9.835938 -10.472656 9.382812 -10.144531 8.875 -9.78125 C 8.375 -9.425781 7.9375 -8.988281 7.5625 -8.46875 C 7.1875 -7.945312 7 -7.289062 7 -6.5 C 7 -5.925781 7.132812 -5.4375 7.40625 -5.03125 C 7.6875 -4.625 8.101562 -4.421875 8.65625 -4.421875 C 9.175781 -4.421875 9.566406 -4.65625 9.828125 -5.125 C 10.097656 -5.601562 10.234375 -6.207031 10.234375 -6.9375 Z M 10.234375 -10.765625 "/></g></g></g><g clip-path="url(#634def4fe2)"><g fill="#ffffff" fill-opacity="1"><g transform="translate(76.753774, 35.29942)"><g><path d="M 0.65625 -31.03125 C 0.65625 -32.070312 1.019531 -32.945312 1.75 -33.65625 C 2.476562 -34.375 3.347656 -34.734375 4.359375 -34.734375 C 5.367188 -34.734375 6.226562 -34.378906 6.9375 -33.671875 C 7.65625 -32.972656 8.015625 -31.972656 8.015625 -30.671875 C 8.015625 -29.878906 7.847656 -29.039062 7.515625 -28.15625 C 7.191406 -27.28125 6.691406 -26.539062 6.015625 -25.9375 C 5.347656 -25.332031 4.488281 -25.03125 3.4375 -25.03125 C 3.238281 -25.03125 3.039062 -25.046875 2.84375 -25.078125 C 2.644531 -25.109375 2.421875 -25.144531 2.171875 -25.1875 C 2.660156 -25.257812 3.0625 -25.46875 3.375 -25.8125 C 3.695312 -26.164062 3.941406 -26.507812 4.109375 -26.84375 C 4.273438 -27.175781 4.359375 -27.34375 4.359375 -27.34375 C 3.347656 -27.34375 2.476562 -27.703125 1.75 -28.421875 C 1.019531 -29.148438 0.65625 -30.019531 0.65625 -31.03125 Z M 0.65625 -31.03125 "/></g></g></g></g><g fill="#ffffff" fill-opacity="1"><g transform="translate(85.435055, 35.29942)"><g><path d="M 7.65625 0.328125 C 6.09375 0.328125 4.785156 0.0507812 3.734375 -0.5 C 2.691406 -1.050781 1.914062 -1.765625 1.40625 -2.640625 C 0.90625 -3.523438 0.65625 -4.472656 0.65625 -5.484375 C 0.65625 -6.710938 0.984375 -7.742188 1.640625 -8.578125 C 2.304688 -9.421875 3.3125 -9.84375 4.65625 -9.84375 C 5.382812 -9.84375 5.9375 -9.703125 6.3125 -9.421875 C 6.6875 -9.148438 6.9375 -8.851562 7.0625 -8.53125 C 7.195312 -8.21875 7.265625 -7.972656 7.265625 -7.796875 C 6.847656 -7.796875 6.488281 -7.644531 6.1875 -7.34375 C 5.894531 -7.050781 5.75 -6.648438 5.75 -6.140625 C 5.75 -5.628906 5.925781 -5.207031 6.28125 -4.875 C 6.644531 -4.550781 7.082031 -4.390625 7.59375 -4.390625 C 8.1875 -4.390625 8.664062 -4.613281 9.03125 -5.0625 C 9.394531 -5.519531 9.578125 -6.175781 9.578125 -7.03125 C 9.578125 -7.800781 9.363281 -8.492188 8.9375 -9.109375 C 8.519531 -9.722656 7.988281 -10.296875 7.34375 -10.828125 C 6.695312 -11.359375 6.003906 -11.890625 5.265625 -12.421875 C 4.523438 -12.960938 3.832031 -13.539062 3.1875 -14.15625 C 2.539062 -14.78125 2.003906 -15.484375 1.578125 -16.265625 C 1.160156 -17.046875 0.953125 -17.953125 0.953125 -18.984375 C 0.953125 -20.066406 1.203125 -21.066406 1.703125 -21.984375 C 2.210938 -22.910156 2.9375 -23.660156 3.875 -24.234375 C 4.8125 -24.804688 5.929688 -25.09375 7.234375 -25.09375 C 8.023438 -25.09375 8.6875 -25.066406 9.21875 -25.015625 C 9.757812 -24.972656 10.328125 -24.945312 10.921875 -24.9375 C 11.515625 -24.925781 12.265625 -24.96875 13.171875 -25.0625 L 13.171875 -19.34375 C 12.421875 -19.78125 11.660156 -20.101562 10.890625 -20.3125 C 10.117188 -20.53125 9.335938 -20.640625 8.546875 -20.640625 C 8.046875 -20.640625 7.566406 -20.519531 7.109375 -20.28125 C 6.660156 -20.050781 6.425781 -19.628906 6.40625 -19.015625 C 6.382812 -18.460938 6.570312 -17.9375 6.96875 -17.4375 C 7.363281 -16.945312 7.875 -16.445312 8.5 -15.9375 C 9.125 -15.4375 9.796875 -14.894531 10.515625 -14.3125 C 11.234375 -13.726562 11.90625 -13.066406 12.53125 -12.328125 C 13.15625 -11.585938 13.671875 -10.738281 14.078125 -9.78125 C 14.484375 -8.832031 14.6875 -7.726562 14.6875 -6.46875 C 14.6875 -5.019531 14.363281 -3.785156 13.71875 -2.765625 C 13.070312 -1.753906 12.210938 -0.984375 11.140625 -0.453125 C 10.078125 0.0664062 8.914062 0.328125 7.65625 0.328125 Z M 7.65625 0.328125 "/></g></g></g></g></g></g></g></g></g></svg>